<svg xmlns="http://www.w3.org/2000/svg" viewBox="0 0 609.17 645.6"><defs><style>.cls-1{fill:none;}.cls-2{fill:#fff;}</style></defs><g id="Layer_2" data-name="Layer 2"><g id="Layer_1-2" data-name="Layer 1"><path class="cls-1" d="M196.54,602.14a18.49,18.49,0,0,0-17.23,0,15.85,15.85,0,0,0-6.1,6.06,18,18,0,0,0-2.25,9.12,18.15,18.15,0,0,0,2.25,9.2,15.79,15.79,0,0,0,6.13,6.06,17.72,17.72,0,0,0,8.61,2.13,17.32,17.32,0,0,0,8.5-2.13,15.69,15.69,0,0,0,6.09-6.06,19.93,19.93,0,0,0,0-18.32A15.31,15.31,0,0,0,196.54,602.14Z"/><path class="cls-1" d="M297.75,492.7c-2.59-1.85-6.22-2.78-10.86-2.78H272.25v24.56h14.64c4.57,0,8.16-1,10.8-3s3.95-5.08,3.95-9.33C301.65,497.73,300.35,494.55,297.75,492.7Z"/><path class="cls-1" d="M213.22,492.7q-3.9-2.77-10.86-2.78H187.72v24.56h14.64c4.57,0,8.17-1,10.8-3s4-5.08,4-9.33C217.12,497.73,215.82,494.55,213.22,492.7Z"/><path class="cls-1" d="M504.39,493.17a28.07,28.07,0,0,0-26.22,0,23.92,23.92,0,0,0-9.27,9.21,30.08,30.08,0,0,0,0,27.86,24,24,0,0,0,9.33,9.22,26.66,26.66,0,0,0,13.11,3.25,26.14,26.14,0,0,0,12.93-3.25,23.88,23.88,0,0,0,9.27-9.22,30.26,30.26,0,0,0,.05-27.85A23.64,23.64,0,0,0,504.39,493.17Z"/><path class="cls-2" d="M606.93,524.59a20.89,20.89,0,0,0-7-7.68,76.09,76.09,0,0,0-13.11-6.79q-7.2-3-10.39-4.49a15.31,15.31,0,0,1-5-3.54,7.4,7.4,0,0,1-1.77-5.08,7.26,7.26,0,0,1,3.78-6.55q3.78-2.31,10.39-2.3a46.06,46.06,0,0,1,20.78,5.2V478a52.69,52.69,0,0,0-11.1-3.66,63.93,63.93,0,0,0-13-1.18,39.79,39.79,0,0,0-15.82,2.95,24.46,24.46,0,0,0-10.63,8.33,22.41,22.41,0,0,0,1.41,26.8q5.19,5.85,16.77,10.57,7,2.83,10.33,4.55a16.15,16.15,0,0,1,5.14,3.84,7.86,7.86,0,0,1,1.77,5.2A7.51,7.51,0,0,1,586,542q-3.54,2.37-10.39,2.36a58.11,58.11,0,0,1-12.87-1.53,59.15,59.15,0,0,1-13-4.61v15.82a47.29,47.29,0,0,0,12.16,3.78,80.29,80.29,0,0,0,15,1.42q16.05,0,24.15-6.26t8.09-17.48A23.76,23.76,0,0,0,606.93,524.59Z"/><path class="cls-2" d="M46.17,543q-12.75,0-20.31-7.15T18.3,516.27q0-12.28,7.5-19.42t20.37-7.15a53.67,53.67,0,0,1,15.17,2A32.24,32.24,0,0,1,73.21,498V481q-11.46-7.82-28.57-7.79a50.18,50.18,0,0,0-23.38,5.25,37.46,37.46,0,0,0-15.7,15Q0,503.16,0,516.26T5.55,539A37.58,37.58,0,0,0,21.25,554a50.18,50.18,0,0,0,23.38,5.25q18.65,0,29.52-8v-17a37.85,37.85,0,0,1-12.52,6.67A51.92,51.92,0,0,1,46.17,543Z"/><polygon class="cls-2" points="93.73 557.47 150.99 557.47 150.99 542.48 111.67 542.48 111.67 523.46 140.6 523.46 140.6 509.06 111.67 509.06 111.67 489.93 150.99 489.93 150.99 474.94 93.73 474.94 93.73 557.47"/><path class="cls-2" d="M231.05,517.85q4.24-6.42,4.25-15.64,0-13.23-7.85-20.25t-21.9-7H169.77v82.53h17.95v-28h14.05l14.52,28h18.42L219,527.23A24.07,24.07,0,0,0,231.05,517.85Zm-17.88-6.31c-2.64,2-6.24,2.94-10.8,2.94H187.73V489.92h14.64c4.64,0,8.27.93,10.86,2.78s3.9,5,3.9,9.5Q217.12,508.58,213.17,511.54Z"/><path class="cls-2" d="M319.24,557.46l-15.71-30.23a24.21,24.21,0,0,0,12.05-9.39q4.25-6.44,4.25-15.64Q319.83,489,312,482t-21.9-7H254.3v82.53h17.95v-28H286.3l14.52,28h18.42Zm-21.55-45.92c-2.64,2-6.24,2.94-10.8,2.94H272.25V489.92h14.64c4.64,0,8.27.93,10.86,2.78s3.9,5,3.9,9.5Q301.65,508.58,297.69,511.54Z"/><rect class="cls-2" x="338.77" y="474.94" width="17.95" height="82.53"/><polygon class="cls-2" points="413.49 557.47 413.49 489.93 437.57 489.93 437.57 474.94 371.45 474.94 371.45 489.93 395.54 489.93 395.54 557.47 413.49 557.47"/><path class="cls-2" d="M513.72,478.6a46,46,0,0,0-22.37-5.43,46.69,46.69,0,0,0-22.49,5.43A40.12,40.12,0,0,0,453,493.83a46.29,46.29,0,0,0,0,44.8,40.43,40.43,0,0,0,15.88,15.16,46.72,46.72,0,0,0,22.49,5.43,46,46,0,0,0,22.37-5.43,40.58,40.58,0,0,0,15.76-15.16,46.29,46.29,0,0,0,0-44.8A40.33,40.33,0,0,0,513.72,478.6Zm-.18,51.64a24.15,24.15,0,0,1-9.27,9.22,26.14,26.14,0,0,1-12.93,3.25,26.72,26.72,0,0,1-13.11-3.25,23.76,23.76,0,0,1-9.33-9.22,30.06,30.06,0,0,1,0-27.85,24,24,0,0,1,9.27-9.21,26.7,26.7,0,0,1,13.17-3.25,26.38,26.38,0,0,1,13.05,3.25,23.51,23.51,0,0,1,9.21,9.21,30.22,30.22,0,0,1-.06,27.85Z"/><path class="cls-2" d="M121,634.85q-8.39,0-13.35-4.7t-5-12.85q0-8.07,4.93-12.77t13.39-4.7a35.68,35.68,0,0,1,10,1.28,21.15,21.15,0,0,1,7.8,4.16V594.09c-5-3.4-11.28-5.12-18.78-5.12a33.12,33.12,0,0,0-15.37,3.45,24.67,24.67,0,0,0-10.32,9.86,32.65,32.65,0,0,0,0,30,24.7,24.7,0,0,0,10.32,9.82A33,33,0,0,0,120,645.57q12.26,0,19.4-5.29V629.1a24.56,24.56,0,0,1-8.23,4.38A34.08,34.08,0,0,1,121,634.85Z"/><path class="cls-2" d="M202.67,592.54A30.27,30.27,0,0,0,188,589a30.75,30.75,0,0,0-14.79,3.57,26.46,26.46,0,0,0-10.44,10,30.47,30.47,0,0,0,0,29.47,26.47,26.47,0,0,0,10.44,10A30.69,30.69,0,0,0,188,645.55,30.27,30.27,0,0,0,202.67,642,26.66,26.66,0,0,0,213,632a28.24,28.24,0,0,0,3.8-14.72,28.55,28.55,0,0,0-3.8-14.75A26.72,26.72,0,0,0,202.67,592.54Zm-.12,34a15.9,15.9,0,0,1-6.09,6.06,17.32,17.32,0,0,1-8.5,2.13,17.67,17.67,0,0,1-8.61-2.13,15.59,15.59,0,0,1-6.13-6.06A18.17,18.17,0,0,1,171,617.3a17.94,17.94,0,0,1,2.25-9.11,15.72,15.72,0,0,1,6.1-6.06,18.41,18.41,0,0,1,17.23,0,15.4,15.4,0,0,1,6,6.06,19.89,19.89,0,0,1,0,18.32Z"/><polygon class="cls-2" points="250.92 590.14 239.12 590.14 239.12 644.39 275.76 644.39 275.76 634.54 250.92 634.54 250.92 590.14"/><polygon class="cls-2" points="307.35 590.14 295.55 590.14 295.55 644.39 332.19 644.39 332.19 634.54 307.35 634.54 307.35 590.14"/><polygon class="cls-2" points="351.98 644.39 389.63 644.39 389.63 634.54 363.78 634.54 363.78 622.04 382.79 622.04 382.79 612.58 363.78 612.58 363.78 600 389.63 600 389.63 590.14 351.98 590.14 351.98 644.39"/><path class="cls-2" d="M437.89,622.83h8.77V633.3a19.09,19.09,0,0,1-8.38,1.72,19.31,19.31,0,0,1-9.31-2.17,15.29,15.29,0,0,1-6.25-6.17,19,19,0,0,1-2.21-9.35,17.5,17.5,0,0,1,2.4-9.24,16.12,16.12,0,0,1,6.56-6.09,20.21,20.21,0,0,1,9.35-2.13,35.68,35.68,0,0,1,10,1.28,21.74,21.74,0,0,1,7.8,4.08V594a27.62,27.62,0,0,0-8.34-3.77,41,41,0,0,0-10.44-1.2,33,33,0,0,0-15.37,3.45,24.61,24.61,0,0,0-10.32,9.86,32.65,32.65,0,0,0,0,30,24.7,24.7,0,0,0,10.32,9.82,33,33,0,0,0,15.37,3.46q12.57,0,20.26-5.28V614.16H437.89Z"/><polygon class="cls-2" points="481.74 644.39 519.39 644.39 519.39 634.54 493.54 634.54 493.54 622.04 512.56 622.04 512.56 612.58 493.54 612.58 493.54 600 519.39 600 519.39 590.14 481.74 590.14 481.74 644.39"/><path class="cls-2" d="M405,237.32c-1.06-.31-1.87.83-1,1.59,9.26,8.46,19.08,24.51,66.55,17,3.11-.49,18.55-2.88,28,11.53,1.16,1.77,2.88,2.88,4.28,4.71.66.85,4.24,2.58,5,3.33.49.48,1.25,1.25,2.11,2.12.5,2.88,1.87,13.84-5.28,17.05-4.71-2.2-9.1-4.09-10.88-4.39-.11,0-8.71-6.84-16.17-6.69-4,.08-16,6.42-19.23,11.56-.72,1.08-4.16,4.11-3.43,5.08.29.39,13.83-2.44,18.5-2.53,14.82-.29,29.51,1.78,40.5,5.63a5.32,5.32,0,0,1,3.18,2.31c.44.88.3,4.76.3,4.76.65,0,3.39-3.51,4.17-6l.24-.54c5-11.78.49-24.59-5.2-28.87-.71-.54-3.51-2.91-4-3.11a31.89,31.89,0,0,0,0-6.69c-1.68-7.82-17.72-24.46-45.11-26.24C437.46,237,448.38,250,405,237.32Z"/><path class="cls-2" d="M126.75,98.6s0,0,0,0l9.15,7.33h0c3.23,2.92,6.34,6.09,9.36,9.41a206.15,206.15,0,0,0-25.14,132.52c13,89.59,84.75,160.58,174.55,172.63a210.75,210.75,0,0,0,28,1.88,203.84,203.84,0,0,0,122.9-41V310.49c-34.77,45.9-92.16,68.78-150.15,58.77A152.89,152.89,0,0,1,171,244.24c-5.17-30.5-1.58-60.44,10.33-87.75,10.83,9.75,29,23.36,47.51,25.17,20.69,2,45.62,2.56,68.75-8.22,4.15-1.95,5.78-3.81,6.1-4.92a1.05,1.05,0,0,0-1.08-1.33c-6,.33-32.79,1.71-72.38-14.25-17.07-6.88-32.32-21.93-46.84-37.11-13.46-14.06-27.37-28.6-43.13-35.74h0l-2.68-1.17a51,51,0,0,0-19-3.76c-8.8,0-17.6,2.3-26.91,7L85.5,85.33a.61.61,0,0,0,.25,1.16l6.91.37A64.1,64.1,0,0,1,126.75,98.6Z"/><path class="cls-2" d="M260.32,287.67a1.94,1.94,0,0,0,1.84.93h0c23.32-.81,46.54-21.05,69-60.14a1.64,1.64,0,0,0,0-1.55,1.4,1.4,0,0,0-1.24-.78l-.46.06-.29.21c-31.41,23.24-59.54,38.87-94.76,39.65-3.87.08-13.65-.52-16.61-.71a.35.35,0,0,0-.24.59c3.15,3.21,17.45,17.41,25.85,19.1a8.27,8.27,0,0,0,2.2.31,49.38,49.38,0,0,0,8.67-1.55c2.68-.63,6.94-2.68,8.36-2.72a3.7,3.7,0,0,1,.5,0C263.14,281.51,259.71,286.58,260.32,287.67Z"/><path class="cls-2" d="M220.12,229.88a2.45,2.45,0,0,0,1.53,2l0,0c24.93,11.7,58.42,2.89,99.53-26.2a1.8,1.8,0,0,0,.73-1.62,1.78,1.78,0,0,0-1-1.49l-.5-.2-.4.07C276.65,210,240,211.34,202.58,193.2c-4.12-2-14.15-7.89-17.19-9.69a.37.37,0,0,0-.51.49c1.89,5.08,10.63,27.74,18.72,34a11.41,11.41,0,0,0,2.18,1.51,58.6,58.6,0,0,0,9.82,3c3.11.78,8.51.9,10,1.63a4.63,4.63,0,0,1,.52.29C225.84,224.89,220,228.41,220.12,229.88Z"/><path class="cls-2" d="M306.27,312.73a45.86,45.86,0,0,0,5.75.38c7.84,0,14.47-2.22,19.71-6.6,9.77-8.17,15.5-21.15,17-38.57a118.1,118.1,0,0,0-1.17-28.55,1.65,1.65,0,0,0-3.26,0c-1.08,6.84-8.88,42-56,63.22l-5.62,2.05,5.42,2.51A62.51,62.51,0,0,0,306.27,312.73Z"/><path class="cls-2" d="M110.06,2.38A122.71,122.71,0,0,1,130,14.71a88.14,88.14,0,0,1,14.74,15.37c.72,1,1.84,1.38,5.3,2.53,2.21.74,7.72,1.67,10.08,2.24a.22.22,0,0,1,0,.44c-2.8.37-8.43.52-9,2a2.79,2.79,0,0,0,.33,2.6c3.22,4.69,4.79,6.82,8.35,11.42A96.21,96.21,0,0,0,172.51,65a71.15,71.15,0,0,0,16.13,10.76,69.19,69.19,0,0,0,18.2,5.85c1,.15,1.95.28,2.92.42l1.63.22a3.29,3.29,0,0,0,.54,0c.29,0,.59.06.88.07l1.41.07c.65.05,1.3.07,1.93.09l2.39.06,2.51-.1c1.46-.09,3-.19,4.5-.39l1.71-.23,5.17-1.15a.34.34,0,0,0,.09-.63c-2.23-1.19-8.42-4.48-9.36-5.06l-.42-.26c-1.23-.7-2.43-1.45-3.6-2.2-.51-.33-1-.64-1.55-1l-.18-.11c-.63-.37-1.25-.73-1.91-1.18l-1.27-.8c-.77-.49-1.53-1-2.22-1.42a153.13,153.13,0,0,1-12.77-9.26,114.3,114.3,0,0,1-11-10.28c-3.68-3.89-7.21-8.15-10.17-11.8l-2.45-3C173,30.45,170.2,27,167.16,23.6c-.69-.78-1.39-1.54-2.09-2.28l-.61-.59c61.17,10.43,103.37,55,134.24,114.57,51.23,98.9,85.26,123.09,113,131.59,16.95,5.19,17.24.47,8.61-4C400,252.35,373.85,229,335.5,150.66c-13.95-28.5-30.45-58-50-82.68a153.75,153.75,0,0,1,160.14,56.46V53.54A204.45,204.45,0,0,0,244.09,28.37C229.64,18.69,214,12.26,196.86,10.5c-10.24-1.06-29.51-.4-43.09.59l-.4-.32A56,56,0,0,0,135.82,2,51.37,51.37,0,0,0,126.73.26a46.14,46.14,0,0,0-9.83,0l-1.79.18-4.93.83A.58.58,0,0,0,110.06,2.38Z"/></g></g></svg>